<svg width="1440" height="829" viewBox="0 0 1440 829" fill="none" xmlns="http://www.w3.org/2000/svg">
<rect width="1440" height="829" fill="white"/>
<path d="M1387.5 704C1432.09 650 1422.68 614.519 1454.59 553.76C1486.5 493 1712.35 800.605 1415.09 842.259C1341.78 852.532 1315.69 845.349 1307.59 838.443C1307.35 839.577 1307.03 840.846 1306.59 842.259C1306.59 842.259 1179.29 849.74 1140.59 842.259C1140.32 842.206 1140.05 842.158 1139.79 842.113C1135.51 849.533 1135.02 858.104 1140.59 867.759C1158.16 898.193 1106.64 836.522 1139.79 842.113C1152.46 820.13 1198.35 808.259 1218.09 808.259C1244.5 808.259 1275.59 757 1292.5 740C1309.41 723 1368.85 726.585 1387.5 704Z" fill="#1FCE65"/>
</svg>
